<?xml version="1.0" standalone="no"?>
<!DOCTYPE svg PUBLIC "-//W3C//DTD SVG 20010904//EN"
 "http://www.w3.org/TR/2001/REC-SVG-20010904/DTD/svg10.dtd">
<svg version="1.0" xmlns="http://www.w3.org/2000/svg"
 width="417.000000pt" height="417.000000pt" viewBox="0 0 417.000000 417.000000"
 preserveAspectRatio="xMidYMid meet">
<metadata>
Created by potrace 1.15, written by Peter Selinger 2001-2017
</metadata>
<g transform="translate(0.000000,417.000000) scale(0.100000,-0.100000)"
fill="#000000" stroke="none">
<path d="M1835 3708 c-2 -7 -16 -83 -30 -168 -14 -85 -27 -164 -30 -176 -3
-15 -19 -25 -64 -37 -33 -9 -99 -37 -146 -62 l-86 -44 -112 82 c-61 46 -132
97 -157 115 l-44 32 -223 -222 c-123 -123 -223 -226 -223 -231 0 -4 45 -75
101 -158 l101 -151 -30 -67 c-17 -36 -44 -102 -61 -147 l-31 -81 -148 -17
c-81 -9 -162 -19 -179 -22 l-33 -6 0 -309 0 -308 32 -6 c18 -3 105 -18 193
-33 l159 -27 8 -40 c5 -22 31 -88 60 -147 l51 -107 -102 -151 c-55 -84 -101
-155 -101 -158 0 -4 101 -108 224 -231 l224 -224 158 107 158 107 75 -35 c42
-19 107 -48 145 -63 l70 -29 30 -185 31 -184 321 -3 322 -2 5 22 c3 13 18 98
32 189 l28 166 51 12 c28 6 94 34 146 60 l96 49 60 -45 c32 -25 103 -77 157
-116 l99 -70 226 226 225 225 -95 129 c-52 70 -104 142 -116 158 l-20 31 38
77 c21 42 49 107 61 145 l22 68 146 29 c80 15 152 30 159 33 9 3 12 75 12 313
l0 308 -32 6 c-18 3 -104 18 -191 33 l-158 27 -23 65 c-12 36 -39 98 -59 137
-21 40 -37 77 -37 83 0 5 50 77 110 160 61 82 110 153 110 158 0 11 -360 383
-409 421 l-38 31 -156 -115 -156 -114 -78 39 c-42 22 -106 49 -142 61 -36 12
-67 23 -68 24 -3 2 -43 334 -43 358 0 16 -21 17 -310 17 -240 0 -312 -3 -315
-12z m804 -1068 l490 -765 -501 -3 c-275 -1 -721 -1 -992 0 l-493 3 495 773
c272 425 498 770 503 765 5 -5 229 -353 498 -773z m-619 -991 c0 -142 1 -151
20 -156 14 -4 20 -14 20 -34 0 -27 -3 -29 -38 -29 -74 0 -77 7 -80 199 l-3
171 40 0 41 0 0 -151z m-203 115 c41 -31 49 -67 25 -115 -17 -34 -18 -41 -6
-46 8 -3 22 -19 30 -35 12 -24 13 -36 4 -64 -19 -55 -40 -64 -162 -64 l-108 0
0 176 0 176 95 -4 c75 -3 100 -8 122 -24z m820 -73 c47 -22 73 -62 73 -115 l0
-35 -102 -3 -103 -3 24 -24 c21 -21 30 -23 80 -18 31 3 64 8 74 12 13 6 17 2
17 -18 0 -49 -125 -75 -196 -41 -103 49 -97 202 11 250 41 18 73 17 122 -5z
m-435 -93 l3 -103 40 0 40 0 3 103 3 102 39 0 40 0 0 -131 0 -130 -52 0 c-29
1 -74 -2 -100 -5 -41 -5 -50 -3 -72 20 -25 24 -26 30 -26 136 l0 110 40 0 39
0 3 -102z m-457 -252 c19 -15 35 -30 35 -34 0 -4 -14 -15 -31 -24 -27 -16 -33
-16 -52 -3 -32 22 -74 19 -102 -10 -21 -20 -25 -34 -25 -80 0 -46 4 -60 25
-80 28 -29 70 -32 102 -10 20 14 25 14 52 -3 28 -17 29 -20 16 -39 -8 -12 -35
-29 -60 -38 -113 -44 -234 45 -235 173 0 45 25 106 57 134 60 54 157 60 218
14z m275 -96 c0 -35 -3 -40 -23 -40 -13 0 -34 -11 -47 -25 -20 -21 -25 -39
-28 -95 l-4 -70 -39 0 -39 0 0 130 0 130 40 0 c29 0 40 -4 40 -15 0 -8 5 -15
10 -15 6 0 10 4 10 8 0 11 39 30 63 31 13 1 17 -7 17 -39z m247 20 c49 -29 69
-70 64 -127 -1 -10 -27 -13 -96 -13 -88 0 -95 -2 -95 -20 0 -27 60 -42 120
-30 62 12 60 13 60 -13 0 -29 -35 -47 -105 -54 -97 -9 -171 60 -162 150 9 102
127 161 214 107z m211 -93 c14 -54 28 -95 32 -90 4 4 20 50 35 101 24 79 31
92 50 92 18 0 25 -13 50 -92 16 -51 32 -97 36 -101 3 -5 17 36 31 90 l24 98
43 3 c49 4 50 20 -9 -147 l-38 -106 -46 -3 c-31 -2 -48 1 -51 10 -2 7 -11 39
-20 71 -9 32 -19 56 -22 53 -3 -3 -13 -34 -23 -68 l-17 -63 -49 0 -48 0 -43
120 c-23 66 -42 124 -42 128 -1 5 18 7 41 5 l42 -3 24 -98z"/>
<path d="M1645 2276 c-68 -29 -101 -97 -99 -202 2 -98 53 -154 141 -154 106 0
151 51 145 163 -1 17 -14 41 -31 58 -23 23 -38 29 -73 29 -39 1 -41 2 -24 15
13 10 32 12 62 8 l44 -6 0 52 0 51 -67 0 c-38 -1 -82 -7 -98 -14z m55 -201 c7
-9 10 -25 5 -42 -6 -27 -7 -27 -21 -9 -15 22 -19 66 -5 66 5 0 14 -7 21 -15z"/>
<path d="M1950 2275 c0 -17 -30 -35 -59 -35 -18 0 -21 -6 -21 -40 0 -39 1 -40
35 -40 l35 0 0 -75 0 -75 -35 0 c-34 0 -35 -1 -35 -40 l0 -40 130 0 130 0 0
40 c0 38 -2 40 -30 40 l-30 0 0 140 0 140 -60 0 c-46 0 -60 -3 -60 -15z"/>
<path d="M2180 2179 l0 -112 54 7 c63 7 86 1 86 -24 0 -35 -26 -44 -73 -26
-70 26 -77 23 -77 -33 0 -46 2 -50 31 -60 53 -18 149 -14 187 9 69 42 81 150
22 203 -16 15 -39 27 -49 27 -26 0 -51 10 -51 21 0 5 29 9 65 9 l65 0 0 45 0
45 -130 0 -130 0 0 -111z"/>
<path d="M2513 2278 c-31 -10 -33 -13 -33 -59 0 -45 2 -49 23 -49 13 0 38 7
56 16 37 18 64 12 59 -13 -2 -13 -14 -19 -41 -21 -36 -3 -37 -4 -37 -42 0 -39
0 -39 43 -42 34 -2 43 -7 45 -25 4 -30 -27 -38 -73 -18 -21 8 -48 15 -61 15
-22 0 -24 -4 -24 -46 0 -42 2 -46 35 -60 45 -18 148 -18 189 1 61 29 85 108
47 156 -17 22 -17 28 -5 49 29 53 14 109 -36 135 -33 17 -137 19 -187 3z"/>
<path d="M1690 1685 c0 -43 1 -45 28 -45 33 0 52 16 52 45 0 29 -19 45 -52 45
-27 0 -28 -2 -28 -45z"/>
<path d="M1690 1540 l0 -50 38 0 c43 0 62 14 62 46 0 28 -35 54 -72 54 -27 0
-28 -2 -28 -50z"/>
<path d="M2534 1632 c-6 -4 -13 -15 -17 -24 -6 -16 1 -18 53 -18 61 0 75 11
48 38 -13 13 -67 16 -84 4z"/>
<path d="M2158 1218 c-8 -7 -18 -21 -21 -30 -6 -16 1 -18 53 -18 53 0 60 2 60
20 0 34 -60 53 -92 28z"/>
</g>
</svg>
