<?xml version="1.0" standalone="no"?>
<!DOCTYPE svg PUBLIC "-//W3C//DTD SVG 20010904//EN"
 "http://www.w3.org/TR/2001/REC-SVG-20010904/DTD/svg10.dtd">
<svg version="1.0" xmlns="http://www.w3.org/2000/svg"
 width="1024.000000pt" height="1024.000000pt" viewBox="0 0 1024.000000 1024.000000"
 preserveAspectRatio="xMidYMid meet">
<metadata>
Created by potrace 1.11, written by Peter Selinger 2001-2013
</metadata>
<g transform="translate(0.000000,1024.000000) scale(0.100000,-0.100000)"
fill="#000000" stroke="none">
<path d="M4450 9231 c-58 -4 -110 -10 -117 -14 -15 -9 -20 -34 -97 -492 -54
-320 -68 -382 -84 -396 -11 -8 -82 -37 -159 -63 -82 -28 -220 -88 -339 -148
l-202 -101 -353 260 c-195 142 -368 269 -385 281 l-31 21 -488 -487 c-268
-268 -517 -519 -552 -559 l-65 -72 38 -63 c21 -35 131 -204 246 -375 114 -172
208 -319 208 -326 0 -8 -25 -69 -56 -138 -60 -133 -224 -541 -224 -558 0 -5
-4 -12 -9 -15 -5 -3 -166 -24 -357 -46 -336 -39 -453 -54 -502 -65 l-22 -5 0
-763 0 -763 467 -80 468 -79 21 -85 c27 -102 73 -214 187 -454 l85 -178 -172
-257 c-94 -141 -207 -311 -250 -379 l-77 -123 34 -42 c65 -79 1059 -1077 1072
-1077 8 0 186 117 396 259 l382 259 51 -23 c214 -97 401 -180 511 -225 72 -29
134 -56 138 -60 4 -4 41 -208 82 -454 40 -247 75 -449 77 -451 2 -1 359 -5
795 -9 l791 -7 12 53 c6 29 40 229 75 443 36 215 67 400 70 411 4 18 19 25 82
39 101 22 248 83 462 190 l172 86 227 -169 c282 -209 538 -392 549 -392 4 0
257 249 562 554 390 390 551 558 545 567 -4 7 -119 164 -254 349 -136 184
-259 354 -275 378 l-28 43 81 167 c83 172 153 343 190 468 l22 71 287 57 c159
31 329 66 379 77 89 20 92 21 99 52 4 18 9 363 12 767 l5 735 -467 80 c-417
71 -468 82 -476 100 -4 11 -31 83 -60 159 -28 77 -91 223 -139 325 l-89 185
20 36 c11 20 96 141 189 270 234 326 330 466 330 482 0 33 -857 917 -1022
1054 l-77 65 -338 -249 c-186 -136 -359 -263 -384 -281 l-46 -32 -124 61
c-171 86 -272 130 -429 185 -74 26 -139 51 -144 55 -9 9 -53 339 -86 650 -27
255 -25 246 -52 255 -29 10 -1246 15 -1388 6z m787 -1006 c184 -283 1046
-1627 1737 -2705 l515 -805 -372 -6 c-484 -8 -3633 -8 -4109 0 l-367 6 481
750 c1573 2457 1940 3018 1959 2998 4 -5 74 -111 156 -238z m-456 -4057 c0
-194 3 -361 7 -370 4 -9 23 -27 42 -40 33 -22 35 -27 35 -78 l0 -55 -81 -3
c-106 -4 -130 6 -155 64 -24 54 -38 278 -39 627 l0 207 95 0 95 0 1 -352z
m-656 307 c83 -10 124 -27 172 -69 80 -70 92 -135 44 -244 -46 -107 -46 -106
-7 -135 38 -30 86 -117 86 -158 0 -48 -34 -132 -66 -164 -49 -49 -93 -57 -361
-62 l-243 -5 0 428 0 429 162 -7 c90 -4 186 -9 213 -13z m2106 -205 c75 -26
125 -57 167 -104 46 -53 63 -100 69 -192 l6 -81 -99 -6 c-55 -4 -160 -7 -234
-8 -183 -1 -185 -2 -115 -68 l57 -54 121 6 c67 3 146 12 174 20 29 8 55 12 58
9 3 -3 5 -19 5 -37 0 -129 -336 -183 -499 -81 -114 73 -170 214 -137 347 39
152 176 266 324 268 23 1 70 -8 103 -19z m-1011 -128 c0 -71 3 -184 7 -250 l6
-122 104 0 103 0 0 98 c0 55 3 167 7 250 l6 152 89 0 88 0 0 -313 0 -314 -172
-6 c-95 -4 -200 -10 -233 -13 -58 -6 -62 -5 -106 29 -80 62 -84 75 -87 365
l-4 252 96 0 96 0 0 -128z m-1297 -672 c79 -12 156 -49 211 -100 25 -24 46
-46 46 -51 0 -12 -112 -79 -132 -79 -10 0 -41 12 -69 27 -118 61 -265 5 -299
-115 -13 -49 -13 -187 1 -237 7 -25 27 -56 54 -81 73 -70 170 -79 261 -23 17
10 40 19 50 19 22 0 116 -59 121 -77 14 -41 -141 -135 -251 -153 -171 -28
-353 77 -434 249 -31 64 -37 88 -40 162 -12 242 141 431 373 462 17 2 35 5 40
5 6 1 36 -2 68 -8z m848 -257 c3 -24 3 -62 0 -85 -6 -39 -9 -43 -44 -50 -86
-18 -149 -73 -172 -152 -8 -26 -18 -109 -21 -182 l-7 -134 -94 0 -93 0 0 315
0 315 69 0 c82 0 121 -12 121 -38 0 -10 5 -23 11 -29 13 -13 49 -5 49 12 0 26
104 76 150 72 21 -2 26 -8 31 -44z m586 14 c113 -58 172 -142 181 -257 4 -59
2 -68 -14 -75 -11 -4 -109 -11 -220 -14 -213 -6 -234 -11 -234 -56 0 -73 159
-105 343 -70 44 8 83 13 88 9 17 -10 9 -70 -11 -92 -31 -33 -69 -49 -160 -68
-149 -30 -268 -2 -363 85 -84 78 -120 210 -87 329 24 92 122 192 219 226 71
25 192 17 258 -17z m492 -35 c5 -20 26 -102 47 -182 40 -159 71 -250 84 -250
11 0 33 60 100 270 68 209 101 248 153 178 12 -16 53 -121 91 -234 39 -113 75
-207 81 -208 15 -2 47 97 96 290 l43 171 85 6 c46 4 88 4 93 1 14 -9 7 -32
-100 -335 l-97 -276 -88 -7 c-131 -10 -132 -9 -179 153 -41 141 -53 171 -69
171 -13 0 -21 -21 -66 -182 l-38 -138 -115 0 -116 0 -21 63 c-12 34 -58 167
-102 295 -45 128 -81 237 -81 242 0 12 41 16 122 12 l68 -4 9 -36z"/>
<path d="M3970 5718 c-223 -27 -338 -173 -356 -448 -14 -219 54 -370 194 -432
58 -26 182 -35 264 -19 174 34 248 135 248 338 0 109 -14 144 -82 210 -51 50
-82 63 -151 64 -29 1 -63 4 -76 8 l-24 7 25 16 c32 21 67 23 176 14 l82 -8 0
131 0 131 -112 -1 c-62 -1 -147 -6 -188 -11z m28 -544 c15 -31 15 -39 1 -87
-9 -34 -12 -37 -26 -25 -33 27 -58 139 -37 161 10 10 50 -21 62 -49z"/>
<path d="M4640 5721 c-15 -4 -32 -21 -42 -42 -18 -38 -64 -63 -132 -73 -22 -3
-43 -11 -48 -18 -12 -21 -10 -162 4 -176 7 -7 42 -12 85 -12 l73 0 0 -180 0
-180 -73 0 c-43 0 -78 -5 -85 -12 -8 -8 -12 -46 -12 -105 l0 -93 326 0 327 0
-5 90 c-3 50 -11 97 -18 105 -8 10 -31 15 -71 15 l-59 0 0 345 0 345 -122 -1
c-68 -1 -134 -4 -148 -8z"/>
<path d="M5170 5449 l0 -281 28 6 c15 3 80 9 144 12 100 6 121 5 142 -10 32
-20 35 -63 7 -97 -25 -31 -80 -29 -178 5 -84 30 -135 33 -154 10 -15 -18 -19
-160 -7 -205 15 -52 158 -85 322 -76 166 9 241 43 304 137 41 62 55 112 55
196 -1 151 -88 258 -234 289 -78 17 -106 32 -90 48 6 6 78 12 161 15 l150 5 0
113 0 114 -325 0 -325 0 0 -281z"/>
<path d="M6120 5720 c-99 -8 -186 -34 -200 -60 -6 -10 -10 -64 -10 -119 0
-140 8 -143 197 -78 101 35 125 32 131 -15 4 -35 -18 -49 -94 -58 -36 -5 -71
-13 -78 -20 -12 -12 -15 -164 -3 -176 4 -5 47 -14 95 -21 89 -13 112 -26 112
-65 0 -25 -36 -58 -64 -58 -13 0 -64 14 -114 30 -53 17 -113 30 -141 30 -66 0
-74 -16 -69 -125 2 -64 7 -88 22 -104 47 -52 266 -84 421 -62 125 18 198 65
246 159 19 37 24 62 24 122 0 76 -3 83 -56 167 l-20 32 26 56 c15 31 29 82 32
115 11 114 -67 217 -180 239 -78 14 -182 19 -277 11z"/>
<path d="M3977 4343 c-4 -3 -7 -51 -7 -105 0 -94 1 -99 24 -109 39 -18 114 -2
148 31 48 48 35 146 -23 176 -28 14 -130 20 -142 7z"/>
<path d="M3982 3998 c-8 -8 -12 -52 -12 -131 l0 -120 84 6 c129 9 166 37 166
124 0 68 -93 133 -190 133 -20 0 -41 -5 -48 -12z"/>
<path d="M6050 4117 c-14 -7 -34 -29 -45 -50 -20 -38 -20 -38 -1 -53 14 -10
48 -14 116 -14 103 0 155 12 164 37 9 23 -21 63 -59 79 -42 17 -141 18 -175 1z"/>
<path d="M5133 3107 c-31 -17 -73 -76 -73 -103 0 -12 7 -25 16 -28 26 -10 234
-7 255 4 40 22 16 95 -41 125 -35 18 -126 19 -157 2z"/>
</g>
</svg>
